<svg width="16" height="16" viewBox="0 0 16 16" fill="none" xmlns="http://www.w3.org/2000/svg">
  <path d="M8 0C3.58 0 0 3.58 0 8C0 11.42 2.29 14.25 5.47 15.29C5.87 15.37 6 15.14 6 14.94C6 14.76 6 14.34 6 13.84C3.73 14.28 3.27 12.72 3.27 12.72C2.91 11.78 2.39 11.54 2.39 11.54C1.66 11.06 2.45 11.07 2.45 11.07C3.26 11.14 3.66 11.97 3.66 11.97C4.36 13.17 5.52 12.85 5.97 12.66C6.04 12.16 6.23 11.84 6.45 11.65C4.69 11.47 2.86 10.78 2.86 7.66C2.86 6.78 3.17 6.09 3.66 5.6C3.58 5.42 3.28 4.57 3.74 3.43C3.74 3.43 4.4 3.23 6 4.29C6.62 4.13 7.31 4.05 8 4.05C8.69 4.05 9.38 4.13 10 4.29C11.6 3.23 12.26 3.43 12.26 3.43C12.72 4.57 12.42 5.42 12.34 5.6C12.83 6.09 13.14 6.78 13.14 7.66C13.14 10.79 11.31 11.46 9.55 11.64C9.84 11.88 10.1 12.37 10.1 13.1C10.1 14.12 10.1 14.85 10.1 14.94C10.1 15.14 10.22 15.38 10.63 15.29C13.71 14.25 16 11.42 16 8C16 3.58 12.42 0 8 0Z" fill="white"/>
</svg>
